<?xml version="1.0" encoding="utf-8"?>
<!-- Generator: Adobe Illustrator 25.2.3, SVG Export Plug-In . SVG Version: 6.00 Build 0)  -->
<svg version="1.1" id="Layer_1" xmlns="http://www.w3.org/2000/svg" xmlns:xlink="http://www.w3.org/1999/xlink" x="0px" y="0px"
	 viewBox="0 0 660.6 157.8" style="enable-background:new 0 0 660.6 157.8;" xml:space="preserve">
<style type="text/css">
	.st0{fill:#006294;}
	.st1{fill:#FBB040;}
	.st2{fill:#FFFFFF;}
</style>
<g>
	<path class="st0" d="M103.8,108c6.2-3.6,13.4-4.5,20.2-2.7c0.8,0.2,1.6,0.5,2.3,0.7c1-1.3,1.9-2.7,2.7-4.2
		c6.4-11.1,8.1-24,4.8-36.4c-1.4-5.1-3.6-9.9-6.4-14.2c-1.1,0.5-2.3,0.9-3.4,1.2c-2.3,0.6-4.6,0.9-6.9,0.9c-4.6,0-9.2-1.2-13.3-3.6
		c-6.2-3.6-10.6-9.3-12.4-16.2c-0.3-1.2-0.5-2.4-0.7-3.6c-1-0.1-2-0.1-3-0.1c-4.2,0-8.4,0.5-12.5,1.7C62.8,34.9,52.4,42.8,46,53.9
		c-0.8,1.5-1.6,3-2.3,4.5c5.9,4.9,9.6,12.3,9.6,20.5c0,7.9-3.5,15-9,19.9c4.1,8.6,10.7,15.7,19.2,20.6c8.4,4.9,17.9,7,27.4,6.3
		C92.5,118.5,96.9,111.9,103.8,108z"/>
	<g>
		<path class="st1" d="M99.6,31.5c1.3,4.7,4.3,8.6,8.5,11c4.2,2.4,9.1,3.1,13.7,1.8c0,0,0,0,0.1,0c1.5-0.4,2.9-1,4.2-1.7
			c1.3-0.7,2.4-1.5,3.5-2.5c1.3-1.2,2.5-2.7,3.4-4.3c5-8.7,2-19.8-6.7-24.8c-2.9-1.6-6-2.4-9.1-2.4c-6.3,0-12.4,3.3-15.8,9.1
			c-0.9,1.6-1.6,3.3-2,5.1c-0.3,1.4-0.5,2.8-0.4,4.3C99,28.4,99.1,29.9,99.6,31.5C99.5,31.4,99.5,31.4,99.6,31.5z"/>
		<path class="st1" d="M132.8,122c-1.2-2-2.7-3.8-4.4-5.1c-1.2-0.9-2.4-1.7-3.7-2.3c-1.5-0.7-3-1.2-4.6-1.4c-1-0.2-2-0.3-3-0.3
			c-3.1,0-6.2,0.8-9.1,2.4c-3.6,2.1-6.2,5.2-7.6,8.7c-0.6,1.5-1.1,3.1-1.3,4.7c-0.2,1.4-0.2,2.9-0.1,4.4c0.3,2.4,1,4.8,2.3,7
			c2.4,4.2,6.3,7.2,11,8.5c4.7,1.3,9.6,0.6,13.8-1.8c4.2-2.4,7.2-6.3,8.5-11C135.9,131.1,135.3,126.2,132.8,122z"/>
		<path class="st1" d="M37.2,64.1c-1.2-0.8-2.5-1.5-3.8-2.1c-2.1-0.8-4.3-1.3-6.7-1.3c-10,0-18.2,8.2-18.2,18.2
			c0,10,8.2,18.2,18.2,18.2c2.6,0,5-0.5,7.3-1.5c1.3-0.6,2.6-1.3,3.8-2.2c1.3-1,2.5-2.1,3.4-3.4c2.3-3.1,3.7-6.9,3.7-11
			c0-4.4-1.5-8.4-4.1-11.5C39.7,66.1,38.5,65,37.2,64.1z"/>
	</g>
	<g>
		<g>
			<path class="st2" d="M365,99.7c0,3.8-1,7.2-2.9,10.1c-1.9,2.9-4.7,5.2-8.3,6.9c-3.6,1.6-7.9,2.4-12.8,2.4
				c-4.1,0-7.5-0.3-10.2-0.9s-5.6-1.6-8.6-3v-14.7c3.2,1.6,6.4,2.9,9.8,3.8c3.4,0.9,6.5,1.4,9.4,1.4c2.5,0,4.3-0.4,5.4-1.3
				c1.1-0.9,1.7-1.9,1.7-3.3c0-0.8-0.2-1.6-0.7-2.2c-0.5-0.6-1.2-1.3-2.2-1.9c-1-0.6-3.7-2-8.1-3.9c-4-1.8-7-3.6-9-5.3
				c-2-1.7-3.5-3.7-4.4-5.9s-1.4-4.8-1.4-7.8c0-5.6,2-10,6.1-13.2c4.1-3.2,9.7-4.7,16.9-4.7c6.3,0,12.8,1.5,19.4,4.4l-5.1,12.8
				c-5.7-2.6-10.7-3.9-14.8-3.9c-2.1,0-3.7,0.4-4.7,1.1c-1,0.8-1.5,1.7-1.5,2.8c0,1.2,0.6,2.3,1.9,3.2c1.2,0.9,4.6,2.7,10.1,5.2
				c5.3,2.4,8.9,4.9,11,7.6C364,92.2,365,95.6,365,99.7z"/>
			<path class="st2" d="M430.3,118.3h-16.6V93.4h-19.2v24.9h-16.6V57.1h16.6v22.7h19.2V57.1h16.6V118.3z"/>
			<path class="st2" d="M484.5,118.3l-3-11.5h-19.9l-3.1,11.5h-18.2l20-61.4h22l20.2,61.4H484.5z M478,93.3l-2.6-10
				c-0.6-2.2-1.4-5.1-2.2-8.7c-0.9-3.5-1.5-6.1-1.7-7.6c-0.3,1.4-0.7,3.8-1.5,7c-0.7,3.3-2.4,9.7-4.9,19.3H478z"/>
			<path class="st2" d="M557,76.6c0,6.8-2,12.1-6,15.8c-4,3.7-9.8,5.6-17.2,5.6h-4.6v20.3h-16.5V57.1h21.2c7.7,0,13.5,1.7,17.4,5.1
				S557,70.4,557,76.6z M529.1,84.6h3c2.5,0,4.5-0.7,5.9-2.1c1.5-1.4,2.2-3.3,2.2-5.8c0-4.1-2.3-6.2-6.9-6.2h-4.3V84.6z"/>
			<path class="st2" d="M606.5,118.3h-36.3V57.1h36.3v13.3h-19.8V80H605v13.3h-18.3v11.5h19.8V118.3z"/>
			<path class="st2" d="M660.6,99.7c0,3.8-1,7.2-2.9,10.1c-1.9,2.9-4.7,5.2-8.3,6.9c-3.6,1.6-7.9,2.4-12.8,2.4
				c-4.1,0-7.5-0.3-10.2-0.9c-2.8-0.6-5.6-1.6-8.6-3v-14.7c3.2,1.6,6.4,2.9,9.8,3.8c3.4,0.9,6.5,1.4,9.4,1.4c2.5,0,4.3-0.4,5.4-1.3
				c1.1-0.9,1.7-1.9,1.7-3.3c0-0.8-0.2-1.6-0.7-2.2c-0.5-0.6-1.2-1.3-2.2-1.9c-1-0.6-3.7-2-8.1-3.9c-4-1.8-7-3.6-9-5.3
				c-2-1.7-3.5-3.7-4.4-5.9s-1.4-4.8-1.4-7.8c0-5.6,2-10,6.1-13.2c4.1-3.2,9.7-4.7,16.9-4.7c6.3,0,12.8,1.5,19.4,4.4l-5.1,12.8
				c-5.7-2.6-10.7-3.9-14.8-3.9c-2.1,0-3.7,0.4-4.7,1.1c-1,0.8-1.5,1.7-1.5,2.8c0,1.2,0.6,2.3,1.9,3.2c1.2,0.9,4.6,2.7,10.1,5.2
				c5.3,2.4,8.9,4.9,11,7.6C659.6,92.2,660.6,95.6,660.6,99.7z"/>
		</g>
		<g>
			<path class="st2" d="M142.1,63.3c-1.6-5.9-4.1-11.5-7.4-16.5c2.2-1.9,4-4.2,5.5-6.7c7.4-12.7,3-29.1-9.8-36.4
				c-6.2-3.6-13.4-4.5-20.2-2.7C103.3,2.8,97.5,7.2,94,13.4c-1.5,2.6-2.5,5.3-3.1,8.2c-6-0.4-12,0.2-18,1.8
				c-14.6,3.9-26.7,13.2-34.3,26.3c-0.8,1.4-1.6,2.9-2.3,4.4c-3-1.2-6.3-1.8-9.7-1.8C12,52.2,0,64.2,0,78.9s12,26.7,26.7,26.7
				c3.7,0,7.3-0.8,10.5-2.2c4.9,9.7,12.5,17.8,22.1,23.4c8.7,5,18.4,7.6,28.1,7.6c1.1,0,2.1,0,3.2-0.1c0.4,3.5,1.5,6.9,3.4,10.2
				c3.6,6.2,9.3,10.6,16.2,12.4c2.3,0.6,4.6,0.9,6.9,0.9c4.6,0,9.2-1.2,13.3-3.6c6.2-3.6,10.6-9.3,12.4-16.2
				c1.8-6.9,0.9-14.1-2.7-20.2c-1.7-2.9-3.9-5.4-6.4-7.5c0.9-1.3,1.8-2.7,2.7-4.2C144,93,146,77.8,142.1,63.3z M132.8,122
				c2.4,4.2,3.1,9.1,1.8,13.8c-1.3,4.7-4.3,8.6-8.5,11c-4.2,2.4-9.1,3.1-13.8,1.8c-4.7-1.3-8.6-4.3-11-8.5c-1.3-2.2-2-4.6-2.3-7
				c-0.2-1.5-0.1-2.9,0.1-4.4c0.2-1.6,0.6-3.2,1.3-4.7c1.5-3.5,4.1-6.7,7.6-8.7c2.9-1.6,6-2.4,9.1-2.4c1,0,2,0.1,3,0.3
				c1.6,0.3,3.2,0.7,4.6,1.4c1.3,0.6,2.6,1.4,3.7,2.3C130.1,118.2,131.7,120,132.8,122z M126.3,106.1c-0.8-0.3-1.5-0.5-2.3-0.7
				c-6.9-1.8-14.1-0.9-20.2,2.7c-6.9,4-11.3,10.5-12.8,17.7c-9.5,0.7-19-1.4-27.4-6.3c-8.4-4.9-15-12-19.2-20.6c5.5-4.9,9-12,9-19.9
				c0-8.2-3.7-15.6-9.6-20.5c0.7-1.5,1.4-3,2.3-4.5c6.4-11.1,16.7-19,29.1-22.3c4.1-1.1,8.3-1.7,12.5-1.7c1,0,2,0,3,0.1
				c0.2,1.2,0.4,2.4,0.7,3.6c1.8,6.9,6.3,12.6,12.4,16.2c4.1,2.4,8.7,3.6,13.3,3.6c2.3,0,4.7-0.3,6.9-0.9c1.2-0.3,2.3-0.7,3.4-1.2
				c2.9,4.3,5,9.1,6.4,14.2c3.3,12.4,1.6,25.3-4.8,36.4C128.2,103.3,127.3,104.7,126.3,106.1z M8.5,78.9c0-10,8.2-18.2,18.2-18.2
				c2.4,0,4.6,0.5,6.7,1.3c1.4,0.5,2.7,1.2,3.8,2.1c1.3,0.9,2.5,2,3.6,3.3c2.6,3.1,4.1,7.1,4.1,11.5c0,4.1-1.4,7.9-3.7,11
				c-1,1.3-2.1,2.5-3.4,3.4c-1.2,0.9-2.4,1.6-3.8,2.2c-2.2,1-4.7,1.5-7.3,1.5C16.7,97.1,8.5,88.9,8.5,78.9z M99.4,22.7
				c0.4-1.8,1.1-3.5,2-5.1c3.4-5.8,9.5-9.1,15.8-9.1c3.1,0,6.2,0.8,9.1,2.4c8.7,5,11.7,16.2,6.7,24.8c-0.9,1.6-2.1,3-3.4,4.3
				c-1,1-2.2,1.8-3.5,2.5c-1.3,0.7-2.7,1.3-4.2,1.7c0,0,0,0-0.1,0c-4.7,1.2-9.5,0.6-13.7-1.8c-4.2-2.4-7.2-6.3-8.5-11c0,0,0,0,0-0.1
				c-0.4-1.5-0.6-3-0.6-4.5C98.9,25.5,99,24.1,99.4,22.7z"/>
			<polygon class="st2" points="206.3,31 187.8,31 187.8,118.4 225.6,118.4 225.6,103.1 206.3,103.1 			"/>
			<path class="st2" d="M286.3,42.3c-7.9-7.5-19-11.3-33.2-11.3h-27.4v56.5h18.5V46.2h9.9c16.6,0,24.9,9.4,24.9,28.1
				c0,19.2-8.9,28.7-26.8,28.7h-7.9v15.3h6.2c15.5,0,27.3-3.8,35.5-11.5c8.2-7.7,12.3-18.7,12.3-33.1
				C298.1,60.4,294.2,49.9,286.3,42.3z"/>
		</g>
	</g>
</g>
</svg>
