<?xml version="1.0" encoding="utf-8"?>
<!-- Generator: Adobe Illustrator 25.2.3, SVG Export Plug-In . SVG Version: 6.00 Build 0)  -->
<svg version="1.1" id="Layer_1" xmlns="http://www.w3.org/2000/svg" xmlns:xlink="http://www.w3.org/1999/xlink" x="0px" y="0px"
	 viewBox="0 0 670.6 157.8" style="enable-background:new 0 0 670.6 157.8;" xml:space="preserve">
<style type="text/css">
	.st0{fill:#006294;}
	.st1{fill:#FBB040;}
	.st2{fill:#FFFFFF;}
</style>
<path class="st0" d="M90.6,134.2c-1,0.1-2.1,0.1-3.1,0.1c-9.6,0-19.3-2.4-28.1-7.6c-9.8-5.7-17.3-13.9-22.1-23.4
	c-3.2,1.4-6.8,2.2-10.5,2.2c-0.3,0-0.7,0-1,0c5.6,12.6,15.1,23.6,27.9,31c10.6,6.1,22.3,9.1,33.8,9.1c2.4,0,4.7-0.1,7.1-0.4
	c-0.2-0.3-0.4-0.6-0.5-0.8C92.1,141.2,91,137.8,90.6,134.2z"/>
<path class="st0" d="M153,60.3c-2.3-8.6-6.2-16.4-11.3-23.3c-0.4,1-0.9,2-1.5,3c-1.5,2.6-3.4,4.8-5.5,6.7c3.3,5,5.8,10.5,7.4,16.5
	c3.9,14.6,1.9,29.8-5.6,42.8c-0.8,1.4-1.7,2.8-2.7,4.2c2.6,2,4.7,4.6,6.4,7.5c0.3,0.6,0.6,1.1,0.9,1.7c1.9-2.4,3.6-5,5.2-7.7
	C155.3,96.1,157.7,77.8,153,60.3z"/>
<path class="st0" d="M36.4,54c0.7-1.5,1.4-2.9,2.3-4.4c7.5-13.1,19.7-22.4,34.3-26.3c6-1.6,12-2.2,18-1.8c0.6-2.8,1.6-5.6,3.1-8.2
	c0.6-1,1.2-1.9,1.9-2.8c-8.5-1.1-17.3-0.5-25.8,1.8C52.5,17.1,37.9,28.3,28.8,44c-1.6,2.7-2.9,5.5-4.1,8.3c0.6,0,1.3-0.1,1.9-0.1
	C30.1,52.2,33.4,52.9,36.4,54z"/>
<path class="st0" d="M117,53.4c-4.6,0-9.2-1.2-13.3-3.6c-6.2-3.6-10.6-9.3-12.4-16.2c-0.3-1.2-0.5-2.4-0.7-3.6c-1-0.1-2-0.1-3-0.1
	c-4.2,0-8.4,0.5-12.5,1.7C62.8,34.9,52.4,42.8,46,53.9c-0.8,1.5-1.6,3-2.3,4.5c5.9,4.9,9.6,12.3,9.6,20.5c0,7.9-3.5,15-8.9,19.9
	c4,8.4,10.5,15.6,19.1,20.6c8.6,5,18.2,7,27.4,6.3c0.1-0.5,0.2-1,0.4-1.5c1.8-6.9,6.3-12.6,12.4-16.2c6.2-3.6,13.4-4.5,20.2-2.7
	c0.8,0.2,1.6,0.5,2.3,0.7c1-1.3,1.9-2.7,2.7-4.2c6.4-11.1,8.1-24,4.8-36.4c-1.4-5.1-3.6-9.9-6.4-14.2c-1.1,0.5-2.3,0.9-3.4,1.2
	C121.7,53.1,119.4,53.4,117,53.4z"/>
<g>
	<path class="st1" d="M99.6,31.5c1.3,4.7,4.3,8.6,8.5,11c4.3,2.5,9.2,3,13.7,1.8c1.5-0.4,2.9-1,4.2-1.7c1.2-0.7,2.4-1.5,3.5-2.5
		c1.3-1.2,2.5-2.6,3.4-4.3c1.1-2,1.9-4.1,2.2-6.3c0.4-2.5,0.3-5-0.4-7.5c-1.3-4.7-4.3-8.6-8.5-11c-2.8-1.6-5.9-2.4-9.1-2.4
		c-1.6,0-3.2,0.2-4.7,0.6c-2.5,0.7-4.8,1.8-6.7,3.4c-1.7,1.4-3.2,3.1-4.3,5.1c-0.9,1.6-1.6,3.3-2,5.1c-0.3,1.4-0.5,2.8-0.4,4.3
		C99,28.4,99.1,29.9,99.6,31.5C99.5,31.4,99.5,31.4,99.6,31.5z"/>
	<path class="st1" d="M134.7,126.6c-0.4-1.6-1-3.1-1.9-4.6c-1.2-2-2.7-3.8-4.5-5.1c-1.2-0.9-2.4-1.7-3.7-2.3
		c-1.5-0.7-3.1-1.2-4.7-1.4c-1-0.2-2-0.2-2.9-0.2c-3.1,0-6.2,0.8-9.1,2.4c-3.5,2-6.1,5.1-7.7,8.7c-0.3,0.8-0.6,1.5-0.8,2.3
		c-0.2,0.8-0.4,1.6-0.5,2.4c-0.2,1.4-0.2,2.9,0,4.3c0.3,2.5,1,4.9,2.3,7.1c0.7,1.3,1.6,2.4,2.6,3.4c5.7,5.9,14.8,7.5,22.2,3.2
		c4.2-2.4,7.2-6.3,8.5-11C135.5,132.7,135.5,129.6,134.7,126.6z"/>
	<path class="st1" d="M37.2,64.1c-1.2-0.8-2.5-1.5-3.8-2.1c-2.1-0.8-4.3-1.3-6.7-1.3c-1.7,0-3.3,0.3-4.9,0.7
		c-7.7,2.1-13.3,9.2-13.3,17.5c0,8.6,5.9,15.7,13.9,17.7c1.4,0.3,2.8,0.5,4.3,0.5c2.6,0,5-0.6,7.3-1.5c1.3-0.6,2.6-1.3,3.7-2.2
		c1.3-1,2.5-2.2,3.5-3.5c2.3-3.1,3.7-6.8,3.7-11c0-4.4-1.5-8.4-4.1-11.5C39.7,66.1,38.5,65,37.2,64.1z"/>
</g>
<path class="st2" d="M140.2,117.8c-1.7-2.9-3.9-5.4-6.4-7.5c0.9-1.3,1.8-2.7,2.7-4.2c7.5-13.1,9.5-28.3,5.6-42.8
	c-1.6-5.9-4.1-11.5-7.4-16.5c2.2-1.9,4-4.2,5.5-6.7c0.6-1,1.1-2,1.5-3c2.3-5.4,2.7-11.5,1.2-17.3c-1.8-6.9-6.3-12.6-12.4-16.2
	c-6.2-3.6-13.4-4.5-20.2-2.7c-5.8,1.6-10.8,4.9-14.4,9.7c-0.7,0.9-1.3,1.8-1.9,2.8c-1.5,2.6-2.5,5.3-3.1,8.2c-6-0.4-12,0.2-18,1.8
	c-14.6,3.9-26.7,13.2-34.3,26.3c-0.8,1.4-1.5,2.8-2.2,4.3c-3.2-1.1-6.7-1.7-10.3-1.7c-0.8,0-1.5,0-2.3,0.1c0,0,0,0.1,0,0.1
	C10.5,53.8,0,65.1,0,78.9c0,14.4,11.4,26.1,25.7,26.7c0.3,0,0.7,0,1,0c3.7,0,7.3-0.8,10.5-2.2c4.8,9.5,12.3,17.7,22.1,23.4
	c8.9,5.1,18.6,7.6,28.1,7.6c1,0,2.1,0,3.1-0.1c0.4,3.6,1.6,7,3.4,10.2c0.2,0.3,0.3,0.6,0.5,0.8c3.6,5.7,9.1,9.8,15.7,11.6
	c2.3,0.6,4.6,0.9,6.9,0.9c4.6,0,9.2-1.2,13.3-3.6c6.2-3.6,10.6-9.3,12.4-16.2c1.7-6.3,1-12.8-1.8-18.5
	C140.8,118.9,140.5,118.3,140.2,117.8z M103.9,143.6c-1-1-1.9-2.2-2.6-3.4c-1.3-2.2-2-4.6-2.3-7.1c-0.2-1.4-0.1-2.9,0-4.3
	c0.1-0.8,0.2-1.6,0.5-2.4c0.2-0.8,0.5-1.6,0.8-2.3c1.5-3.6,4.2-6.7,7.7-8.7c2.9-1.6,6-2.4,9.1-2.4c1,0,2,0.1,2.9,0.2
	c1.6,0.3,3.2,0.7,4.7,1.4c1.3,0.6,2.6,1.4,3.7,2.3c1.7,1.4,3.3,3.1,4.5,5.1c0.8,1.5,1.5,3,1.9,4.6c0.8,3,0.8,6.1,0,9.2
	c-1.3,4.7-4.3,8.6-8.5,11C118.8,151.1,109.6,149.5,103.9,143.6z M99.4,22.7c0.4-1.8,1.1-3.5,2-5.1c1.1-2,2.6-3.7,4.3-5.1
	c1.9-1.6,4.2-2.7,6.7-3.4c1.6-0.4,3.2-0.6,4.7-0.6c3.1,0,6.3,0.8,9.1,2.4c4.2,2.4,7.2,6.3,8.5,11c0.7,2.5,0.8,5,0.4,7.5
	c-0.3,2.2-1.1,4.3-2.2,6.3c-0.9,1.6-2.1,3-3.4,4.3c-1.1,1-2.2,1.8-3.5,2.5c-1.3,0.7-2.8,1.3-4.2,1.7c-4.5,1.2-9.4,0.7-13.7-1.8
	c-4.2-2.4-7.2-6.3-8.5-11c0,0,0,0,0-0.1c-0.4-1.5-0.6-3-0.6-4.5C98.9,25.5,99,24.1,99.4,22.7z M46,53.9c6.4-11.1,16.7-19,29.1-22.3
	c4.1-1.1,8.3-1.7,12.5-1.7c1,0,2,0,3,0.1c0.2,1.2,0.4,2.4,0.7,3.6c1.8,6.9,6.3,12.6,12.4,16.2c4.1,2.4,8.7,3.6,13.3,3.6
	c2.3,0,4.7-0.3,6.9-0.9c1.2-0.3,2.3-0.7,3.4-1.2c2.9,4.3,5,9.1,6.4,14.2c3.3,12.4,1.6,25.3-4.8,36.4c-0.8,1.5-1.8,2.9-2.7,4.2
	c-0.8-0.3-1.5-0.5-2.3-0.7c-6.9-1.8-14.1-0.9-20.2,2.7c-6.2,3.6-10.6,9.3-12.4,16.2c-0.1,0.5-0.2,1-0.4,1.5
	c-9.2,0.7-18.8-1.3-27.4-6.3c-8.6-5-15.1-12.2-19.1-20.6c5.5-4.9,8.9-12,8.9-19.9c0-8.2-3.7-15.6-9.6-20.5
	C44.4,56.9,45.2,55.4,46,53.9z M8.5,78.9c0-8.3,5.6-15.4,13.3-17.5c1.6-0.4,3.2-0.7,4.9-0.7c2.4,0,4.6,0.5,6.7,1.3
	c1.4,0.5,2.6,1.2,3.8,2.1c1.3,0.9,2.5,2.1,3.6,3.3c2.6,3.1,4.1,7.1,4.1,11.5c0,4.1-1.4,7.9-3.7,11c-1,1.3-2.2,2.5-3.5,3.5
	c-1.1,0.9-2.4,1.6-3.7,2.2c-2.2,1-4.7,1.5-7.3,1.5c-1.5,0-2.9-0.2-4.3-0.5C14.5,94.6,8.5,87.4,8.5,78.9z"/>
<g>
	<path class="st0" d="M375,102.5c0,3.8-1,7.2-2.9,10.1c-1.9,2.9-4.7,5.2-8.3,6.9c-3.6,1.6-7.9,2.4-12.8,2.4c-4.1,0-7.5-0.3-10.2-0.9
		c-2.8-0.6-5.6-1.6-8.6-3v-14.7c3.2,1.6,6.4,2.9,9.8,3.8c3.4,0.9,6.5,1.4,9.4,1.4c2.5,0,4.3-0.4,5.4-1.3s1.7-1.9,1.7-3.3
		c0-0.8-0.2-1.6-0.7-2.2c-0.5-0.6-1.2-1.3-2.2-1.9c-1-0.6-3.7-2-8.1-3.9c-4-1.8-7-3.6-9-5.3c-2-1.7-3.5-3.7-4.4-5.9
		c-1-2.2-1.4-4.8-1.4-7.8c0-5.6,2-10,6.1-13.2c4.1-3.2,9.7-4.7,16.9-4.7c6.3,0,12.8,1.5,19.4,4.4l-5.1,12.8
		c-5.7-2.6-10.7-3.9-14.8-3.9c-2.1,0-3.7,0.4-4.7,1.1c-1,0.8-1.5,1.7-1.5,2.8c0,1.2,0.6,2.3,1.9,3.2c1.2,0.9,4.6,2.7,10.1,5.2
		c5.3,2.4,8.9,4.9,11,7.6C374,94.9,375,98.4,375,102.5z"/>
	<path class="st0" d="M440.3,121.1h-16.6V96.1h-19.2v24.9h-16.6V59.9h16.6v22.7h19.2V59.9h16.6V121.1z"/>
	<path class="st0" d="M494.5,121.1l-3-11.5h-19.9l-3.1,11.5h-18.2l20-61.4h22l20.2,61.4H494.5z M488,96.1l-2.6-10
		c-0.6-2.2-1.4-5.1-2.2-8.7c-0.9-3.5-1.5-6.1-1.7-7.6c-0.3,1.4-0.7,3.8-1.5,7c-0.7,3.3-2.4,9.7-4.9,19.3H488z"/>
	<path class="st0" d="M567,79.4c0,6.8-2,12.1-6,15.8c-4,3.7-9.8,5.6-17.2,5.6h-4.6v20.3h-16.5V59.9h21.2c7.7,0,13.5,1.7,17.4,5.1
		C565,68.3,567,73.1,567,79.4z M539.1,87.3h3c2.5,0,4.5-0.7,5.9-2.1c1.5-1.4,2.2-3.3,2.2-5.8c0-4.1-2.3-6.2-6.9-6.2h-4.3V87.3z"/>
	<path class="st0" d="M616.5,121.1h-36.3V59.9h36.3v13.3h-19.8v9.6H615v13.3h-18.3v11.5h19.8V121.1z"/>
	<path class="st0" d="M670.6,102.5c0,3.8-1,7.2-2.9,10.1c-1.9,2.9-4.7,5.2-8.3,6.9c-3.6,1.6-7.9,2.4-12.8,2.4
		c-4.1,0-7.5-0.3-10.2-0.9c-2.8-0.6-5.6-1.6-8.6-3v-14.7c3.2,1.6,6.4,2.9,9.8,3.8c3.4,0.9,6.5,1.4,9.4,1.4c2.5,0,4.3-0.4,5.4-1.3
		c1.1-0.9,1.7-1.9,1.7-3.3c0-0.8-0.2-1.6-0.7-2.2c-0.5-0.6-1.2-1.3-2.2-1.9c-1-0.6-3.7-2-8.1-3.9c-4-1.8-7-3.6-9-5.3
		c-2-1.7-3.5-3.7-4.4-5.9s-1.4-4.8-1.4-7.8c0-5.6,2-10,6.1-13.2c4.1-3.2,9.7-4.7,16.9-4.7c6.3,0,12.8,1.5,19.4,4.4l-5.1,12.8
		c-5.7-2.6-10.7-3.9-14.8-3.9c-2.1,0-3.7,0.4-4.7,1.1c-1,0.8-1.5,1.7-1.5,2.8c0,1.2,0.6,2.3,1.9,3.2c1.2,0.9,4.6,2.7,10.1,5.2
		c5.3,2.4,8.9,4.9,11,7.6C669.6,94.9,670.6,98.4,670.6,102.5z"/>
</g>
<g>
	<polygon class="st0" points="216.3,105.9 216.3,33.8 197.8,33.8 197.8,121.2 235.6,121.2 235.6,105.9 	"/>
	<path class="st0" d="M296.3,45.1c-7.9-7.5-19-11.3-33.2-11.3h-27.4v56.5h18.5V49h9.9c16.6,0,24.9,9.4,24.9,28.1
		c0,19.2-8.9,28.7-26.8,28.7h-7.9v15.3h6.2c15.5,0,27.3-3.8,35.5-11.5c8.2-7.7,12.3-18.7,12.3-33.1
		C308.1,63.2,304.2,52.6,296.3,45.1z"/>
</g>
</svg>
